<?xml version="1.0" encoding="UTF-8"?><svg id="uuid-6d12cd0d-7a2a-43d5-b28b-ebf8814dda1a" xmlns="http://www.w3.org/2000/svg" viewBox="0 0 425.2 425.2"><polygon points="61.34 346.66 61.34 52.46 365.1 52.46 365.1 346.66 213.22 397.17 61.34 346.66" fill="#bcbec0"/><polygon points="68.56 340.24 68.56 60.01 357.88 60.01 357.88 340.24 213.22 388.35 68.56 340.24" fill="#fff"/><polygon points="75.4 333.73 75.4 67.24 350.55 67.24 350.55 333.73 212.98 379.49 75.4 333.73" fill="#001641"/><g><path d="M58.35,100.71v-24.03c0-27.88,13.09-40.93,40.13-40.93h66.6c8.73,0,16,1.37,21.85,4.15,.79-3.36,3.78-6.25,8.01-5.16,5.77,1.48,10.52,6.38,14.19,11.58,1.99-2.55,4.1-5.02,6.36-7.38,.29-.31,3.28-1.73,3.59-1.97-10.11-15.53-30.32-22.8-54-22.8H98.48c-38.95,0-61.28,22.78-61.28,62.51v45.6l28.76-.3,.72-5.54-8.33-15.74" fill="#bcbec0"/><path d="M215.99,242.51c-.05,.1-.08,.2-.13,.3-.77,1.34-1.9,2.24-3.18,2.75-2.93,2.02-6.35,.78-8.32-1.69-3.26-1.86-6.5-3.82-10.21-4.45-1.07-.18-1.99-.72-2.73-1.46-6.19,3.6-14.15,5.43-24.02,5.43H96.16c-27.05,0-40.13-13.35-40.13-40.93v-24.32h14.83c-.03-.76-.06-1.52-.09-2.29-1.42-1.08-2.42-2.76-2.5-5.06-.17-4.77-.35-9.46-.36-14.22H34.88v45.9c0,19.66,5.42,35.16,16.12,46.07,10.7,10.91,25.89,16.44,45.16,16.44h71.25c19.27,0,34.47-5.53,45.16-16.44,2.53-2.58,4.76-5.43,6.7-8.52-1.12,.8-2.22,1.62-3.27,2.52Z" fill="#bcbec0"/><path d="M329.04,14.17h-74.45c-24.13,0-41.88,8.76-51.89,24.86,2.42,2.08,4.56,4.65,6.42,7.29,1.99-2.55,4.11-5.02,6.36-7.38,4.51-4.73,10.97-.37,11.23,4.72,6.58-5.32,15.84-7.91,27.87-7.91h74.45c27.05,0,40.13,13.05,40.13,40.93v125.77c0,27.59-13.09,40.93-40.13,40.93h-74.45c-12.45,0-21.94-2.83-28.56-8.59-.08,.07-.15,.15-.22,.22-3.04,2.84-6.68,4.82-9.81,7.49-.05,.1-.08,.2-.13,.3-.77,1.34-1.9,2.24-3.18,2.75-1.77,1.22-3.72,1.25-5.43,.53,.7,.83,1.41,1.64,2.17,2.41,10.7,10.91,25.89,16.44,45.16,16.44h74.45c19.27,0,34.47-5.53,45.16-16.44,10.7-10.91,16.12-26.41,16.12-46.07V76.68c0-39.72-22.34-62.51-61.28-62.51Z" fill="#bcbec0"/></g><rect x="75.4" y="67.24" width="275.15" height="164.16" fill="#001641"/><g><path d="M74.61,108.57c0-3.23-.1-5.5,1.86-6.94-.08-.31-.15-.62-.23-.92h-17.89v-24.03c0-27.88,13.09-40.93,40.13-40.93h66.6c13.7,0,26.5,2.69,33.14,9.62q3.04,3.59,4.47,5.72c1.39,2.06,5.24-1.24,6.5,.86,.92-.13,1.84-.23,2.75-.35,.15-.2,.32-.4,.51-.6,.69-.74,3.19-3.42,3.94-4.01-7.89-18.29-26.54-26.07-51.31-26.07H98.48c-35.26,0-54.67,19.8-54.67,55.76v38.86h30.8" fill="#fff"/><path d="M200.76,235.94c-1.83,0-3.26-.63-4.31-1.6-6.64,6.05-16.28,9.04-29.05,9.04H96.16c-27.05,0-40.13-13.35-40.13-40.93v-24.32h18.58v-14.83s0,.02,0,0H41.49v39.15c0,17.8,4.77,31.7,14.18,41.3,9.41,9.6,23.03,14.47,40.49,14.47h71.25c17.46,0,31.08-4.87,40.49-14.47,2.29-2.34,4.29-4.95,6.02-7.8h-13.16Z" fill="#fff"/><path d="M329.04,20.92h-74.45c-24.06,0-40.7,9.26-48.87,26.55,1.36,1.33,1.98,7.19,2.96,8.81,.92-.13,1.85-.24,2.77-.36,.15-.2,.83-4.73,1.01-4.92,3.72-3.95,8.27-5.65,13.12-6.34,6.63-5.99,16.27-8.91,29.02-8.91h74.45c27.05,0,40.13,13.05,40.13,40.93v125.77c0,27.59-13.09,40.93-40.13,40.93h-74.45c-11.58,0-20.58-2.47-27.11-7.44h-19.44c1.74,2.85,3.75,5.46,6.05,7.8,9.41,9.6,23.03,14.47,40.49,14.47h74.45c17.46,0,31.08-4.87,40.49-14.47,9.41-9.6,14.18-23.49,14.18-41.3V76.68c0-35.96-19.42-55.76-54.67-55.76Z" fill="#fff"/></g><g><path d="M56.45,202.45v-24.32h49.24v17.5c0,4.15,1.48,5.64,5.64,5.64h44.79c4.15,0,5.64-1.48,5.64-5.64v-32.33c0-4.15-1.48-5.64-5.64-5.64h-46.87v-40.93h44.49c4.15,0,5.64-1.19,5.64-5.64v-27.88c0-4.15-1.48-5.64-5.64-5.64h-40.04c-4.15,0-5.64,1.48-5.64,5.64v17.5H58.82v-24.03c0-27.88,13.35-40.93,40.93-40.93h67.93c27.59,0,40.93,13.05,40.93,40.93v25.51c0,18.09-4.15,29.37-21.06,35,18.09,4.45,23.43,18.39,23.43,35v30.26c0,27.59-13.35,40.93-40.93,40.93H97.38c-27.59,0-40.93-13.35-40.93-40.93Z" fill="#fff"/><path d="M167.68,35.75c27.59,0,40.93,13.05,40.93,40.93v25.51c0,18.09-4.15,29.37-21.06,35,18.09,4.45,20.73,18.64,20.73,35.25v30.26c0,27.59-10.64,40.69-38.23,40.69H97.38c-27.59,0-40.93-13.35-40.93-40.93v-24.32h49.24v17.5c0,4.15,1.48,5.64,5.64,5.64h44.79c4.15,0,5.64-1.48,5.64-5.64v-32.33c0-4.15-1.48-5.64-5.64-5.64h-46.87v-40.93h44.49c4.15,0,5.64-1.19,5.64-5.64v-27.88c0-4.15-1.48-5.64-5.64-5.64h-40.04c-4.15,0-5.64,1.48-5.64,5.64v17.5H58.82v-24.03c0-27.88,13.35-40.93,40.93-40.93h67.93m0-8.09H99.76c-15.98,0-28.27,4.16-36.52,12.37-8.3,8.25-12.51,20.59-12.51,36.66v32.12h50.43v56.95h52.5v27.42h-39.88v-23.14H48.36v32.41c0,32.07,16.95,49.02,49.02,49.02h72.67c32.07,0,49.02-16.95,49.02-49.02v-30.26c0-18.33-6.25-29.17-14.24-35.54,10.16-9.16,11.86-22.19,11.86-34.46v-25.51c0-16.07-4.21-28.4-12.51-36.66-8.25-8.2-20.54-12.37-36.52-12.37h0Zm-10.99,138.12h0Z" fill="#001641"/></g><g><path d="M214.46,202.45V76.68c0-27.88,13.09-40.93,40.13-40.93h74.45c27.05,0,40.13,13.05,40.13,40.93v125.77c0,27.59-13.09,40.93-40.13,40.93h-74.45c-27.05,0-40.13-13.35-40.13-40.93Zm100.91-1.78c4.07,0,5.53-1.48,5.53-5.64V84.09c0-4.45-1.45-5.64-5.53-5.64h-47.11c-4.07,0-5.53,1.19-5.53,5.64v110.94c0,4.15,1.45,5.64,5.53,5.64h47.11Z" fill="#fff"/><path d="M315.37,78.46h-47.11c-4.07,0-5.53,1.19-5.53,5.64v110.94c0,4.15,1.45,5.64,5.53,5.64h47.11c4.07,0,5.53-1.48,5.53-5.64V84.09c0-4.45-1.45-5.64-5.53-5.64Z" fill="#001641"/><path d="M364.84,40.02c-8.09-8.2-20.13-12.37-35.8-12.37h-74.45c-15.67,0-27.71,4.16-35.8,12.37-5.65,5.73-9.36,13.44-11.11,23,.58,.95,.99,2.07,1.16,3.35,2.48,18.81,1.26,37.6-1.74,56.27-.12,.74-.32,1.4-.58,1.99v21.76c1.72,1.26,2.95,3.22,3.3,5.32,.79,.88,1.37,1.92,1.64,3.06,.34,1.46,.55,2.9,.63,4.33,.15,.29,.32,.58,.43,.9,.5,.94,.72,1.96,.68,3.05v1.45c0,1.29-.31,2.49-.89,3.62,.81,8.58,.27,17.09-.52,25.62,1.1,9.79-.8,19.35-2.41,28.98,5.96,18.86,21.26,28.73,45.2,28.73h74.45c31.44,0,48.06-16.95,48.06-49.02V76.68c0-16.07-4.13-28.4-12.26-36.66Zm4.33,162.43c0,27.59-13.09,40.93-40.13,40.93h-74.45c-27.05,0-40.13-13.35-40.13-40.93V76.68c0-27.88,13.09-40.93,40.13-40.93h74.45c27.05,0,40.13,13.05,40.13,40.93v125.77Z" fill="#001641"/></g><rect x="68.31" y="250.88" width="289.33" height="41.83" fill="#fff"/><rect x="75.4" y="244.97" width="275.15" height="67.96" fill="#001641"/><g><path d="M336.88,292.82c-81.71-15.59-165.62-15.59-247.33,0,0-13.84,0-27.67,0-41.51,81.71-15.59,165.62-15.59,247.33,0v41.51Z" fill="#001641"/><path d="M213.22,239.62c41.41,0,82.81,3.9,123.66,11.69v41.51c-40.85-7.79-82.26-11.69-123.66-11.69s-82.81,3.9-123.66,11.69v-41.51c40.85-7.79,82.26-11.69,123.66-11.69m0-3.8c-41.63,0-83.48,3.96-124.38,11.76l-3.09,.59v49.25l4.51-.86c40.43-7.71,81.79-11.62,122.95-11.62s82.52,3.91,122.95,11.62l4.51,.86v-49.25l-3.09-.59c-40.9-7.8-82.74-11.76-124.38-11.76h0Z" fill="#fff"/></g><g><path d="M133.49,271.55c-3.21-6.24-6.41-12.45-9.61-18.63,2.55-.44,5.1-.87,7.66-1.28,1.84,4.05,3.69,8.1,5.54,12.17,1.83-4.61,3.67-9.21,5.5-13.8,2.53-.35,5.07-.67,7.6-.98-3.21,7.12-6.41,14.28-9.61,21.46v9.76c-2.36,.33-4.72,.68-7.08,1.04v-9.76Z" fill="#fff"/><path d="M163.61,247.6c6.88-.65,13.77-1.15,20.67-1.52,0,2.06,0,4.11,0,6.17-4.52,.24-9.04,.54-13.56,.9,0,1.81,0,3.62,0,5.44,3.62-.29,7.23-.54,10.85-.75,0,2.03,0,4.05,0,6.08-3.62,.21-7.24,.46-10.85,.75,0,2.04,0,4.08,0,6.12,4.52-.36,9.03-.66,13.56-.9,0,2.05,0,4.11,0,6.16-6.9,.37-13.79,.87-20.67,1.52,0-9.99,0-19.98,0-29.97Z" fill="#fff"/><path d="M215.5,269.02c-3.19-.03-6.39-.03-9.58,0-.57,2.12-1.15,4.24-1.72,6.36-2.46,.03-4.93,.09-7.39,.15,3.04-10.08,6.07-20.12,9.11-30.14,3.28-.03,6.56-.04,9.84,0,3.05,10.02,6.1,20.06,9.15,30.14-2.56-.07-5.13-.12-7.69-.15-.57-2.12-1.15-4.24-1.72-6.35Zm-1.63-6.05c-1.05-3.92-2.09-7.83-3.14-11.74-1.06,3.91-2.12,7.82-3.18,11.74,2.11-.01,4.21-.02,6.32,0Z" fill="#fff"/><path d="M262.32,277.93c-2.47-.25-4.94-.48-7.41-.7-1.67-3.58-3.34-7.16-5.02-10.73-1.39-.11-2.77-.21-4.16-.3v10.32c-2.37-.16-4.75-.31-7.12-.44v-29.97c5.58,.3,11.16,.7,16.73,1.18,3.98,.35,5.91,2.44,5.91,6.46v7.49c0,3.38-1.33,5.09-4.11,5.35,1.73,3.77,3.46,7.54,5.18,11.33Zm-9-17.06c.6,.05,.81-.1,.81-.74v-6.08c0-.64-.21-.83-.81-.88-2.53-.21-5.06-.4-7.59-.58v7.71c2.53,.17,5.06,.37,7.59,.58Z" fill="#fff"/><path d="M275.95,273.59v-3.94c2.33,.3,4.67,.62,7,.95,0,1.01,0,2.03,0,3.04,0,.6,.21,.84,.81,.93,2.25,.32,4.49,.66,6.73,1.02,.6,.09,.81-.09,.81-.68v-3.13c0-.68-.3-.95-1.19-1.3-2.64-1.06-5.28-2.1-7.93-3.11-3.97-1.54-6.15-2.93-6.15-7v-4.92c0-4.02,1.92-5.67,5.89-5.11,3.36,.47,6.71,.98,10.06,1.52,3.96,.64,5.87,2.87,5.87,6.89v3.6c-2.32-.4-4.65-.79-6.98-1.16v-2.7c0-.64-.21-.85-.81-.94-2.04-.32-4.09-.63-6.14-.93-.6-.09-.81,.06-.81,.7v2.78c0,.69,.26,.94,1.19,1.29,2.64,1.03,5.28,2.08,7.92,3.15,3.96,1.63,6.12,3.13,6.12,7.19v5.27c0,3.98-1.91,5.57-5.87,4.92-3.55-.58-7.1-1.11-10.65-1.61-3.97-.56-5.89-2.72-5.89-6.7Z" fill="#fff"/></g><g><path d="M139.39,308.03l-1.22,1.86c-.13,.18-.23,.34-.34,.51h-50.11c-2.67-.02-13.3-5.44-16.54-15.93-6.01-19.46-.14-34.25,3.98-42.69l-2.61-1.9c-14.01,13.46-34.03,32.69-34.03,59.79,0,5.22,.74,10.74,2.42,16.56,4.9,17.06,27.27,30.13,64.69,37.81,0,0,.25,.05,.39,.08-.03,.14-.06,.27-.06,.42,0,1.2,1.31,2.83,8.57,7.92,4.49,3.14,9.63,6.45,11.99,7.9,10.27,6.3,21.92,11.3,32.8,14.07l3.03,.77-1.1-2.93c-.15-.4-.46-.99-.96-1.86,12.63,6.8,26.23,10.3,26.89,10.46l3.32,.82-1.45-3.12c-.12-.25-.5-1.15-.93-2.19,5.86,3.53,24.4,14.63,24.4,14.63,0,0,18.53-11.09,24.4-14.63-.43,1.04-.82,1.94-.93,2.19l-1.45,3.12,3.32-.82c.65-.16,14.26-3.66,26.89-10.46-.49,.87-.81,1.45-.96,1.86l-1.1,2.93,3.03-.77c10.88-2.77,22.53-7.77,32.8-14.07,2.36-1.45,7.51-4.76,11.99-7.9,7.26-5.09,8.57-6.72,8.57-7.92,0-.15-.03-.28-.06-.42,.13-.03,.39-.08,.39-.08,37.42-7.68,59.79-20.75,64.69-37.81,1.67-5.82,2.42-11.34,2.42-16.56,0-27.11-20.02-46.33-34.03-59.79l-1.37,1c4.12,8.44,9.77,23.46,3.76,42.92-3.24,10.49-14.89,16.58-17.55,16.6h-50.11c-.11-.17-.22-.33-.35-.51l-1.22-1.86H139.39Z" fill="#fff" fill-rule="evenodd"/><path d="M284,311.22c.17,.26,.98,2.46,.98,2.46h52.36c3.71,0,16.86-6.58,20.67-18.9,1.78-5.75,2.48-11.1,2.48-16,0-8.11-1.93-14.99-4.08-20.46,7.54,7.57,14.78,15.75,19.86,25.07,4.69,8.6,7.02,17.27,7.02,26.21,0,5.15-.77,10.39-2.31,15.75-4.48,15.59-26.57,28.19-62.2,35.5-1.12,.23-1.81,.38-2.28,.55h.01s-.05,.01-.07,.02c-.32,.13-.54,.27-.68,.47-.12,.15-.2,.33-.24,.53,0,.01,0,.02,0,.03h0c-.02,.1-.04,.22-.04,.34,0,.4,.11,.91,.25,1.46-1.71,2.05-12.17,9.2-18.89,13.34-8.84,5.42-18.71,9.84-28.19,12.66,.7-1.22,1.42-2.5,1.9-3.54l2.34-5.08-4.71,3.01c-9.88,6.32-22.12,10.43-27.86,12.15,.71-1.81,1.35-3.65,1.4-3.92l.68-3.6s-28.3,16.99-29.87,17.94c-1.57-.95-29.87-17.94-29.87-17.94l.68,3.6c.05,.28,.69,2.11,1.4,3.92-5.73-1.72-17.98-5.84-27.85-12.15l-4.71-3.01,2.34,5.08c.48,1.04,1.2,2.32,1.9,3.54-9.48-2.82-19.35-7.24-28.18-12.66-6.73-4.14-17.19-11.29-18.89-13.34,.14-.56,.25-1.06,.25-1.46,0-.13-.02-.24-.04-.35h0s0-.01-.01-.02c-.04-.2-.12-.38-.24-.53-.14-.2-.36-.34-.68-.47-.03-.01-.04-.03-.07-.04h.01c-.47-.16-1.16-.3-2.28-.53-35.64-7.31-57.73-19.92-62.2-35.5-1.54-5.36-2.31-10.6-2.31-15.75,0-8.94,2.33-17.61,7.02-26.21,5.08-9.32,12.31-17.5,19.86-25.07-2.15,5.48-4.08,12.35-4.08,20.46,0,4.9,.7,10.25,2.48,16,3.81,12.32,16.95,18.9,20.67,18.9h52.36s.81-2.19,.98-2.46h142.95Z" fill="#001641" fill-rule="evenodd"/><path d="M363.17,271.13c8.39,9.86,14.03,21.46,14.03,31.35,0,10.84-5.64,21-19.26,27.52-2.21,1.06-6.36,2.65-7.64,2.65h-56.63c-2.72-3.99-6.38-12.35-7.53-15.44h54.03c4.17,0,12.21-5.73,16.24-11.68,4.56-6.72,6.36-14.93,6.92-22.44,0,0,.4-7.97-.15-11.96Z" fill="#fff"/><path d="M61.87,271.13c-8.39,9.86-14.03,21.46-14.03,31.35,0,10.84,5.64,21,19.26,27.52,2.21,1.06,6.36,2.65,7.64,2.65h56.63c2.71-3.99,6.37-12.35,7.53-15.44h-54.03c-4.17,0-12.21-5.73-16.24-11.68-4.56-6.72-6.36-14.93-6.92-22.44,0,0-.4-7.97,.15-11.96Z" fill="#fff"/><path d="M143.93,331.51c-6.33,10.14-12.12,22.05-22.42,32.45h-8.19c14.23-15.85,24.16-32.29,30.51-48.45h137.39c6.34,16.16,16.28,32.6,30.51,48.45h-8.19c-10.3-10.4-16.09-22.32-22.42-32.45H143.93Z" fill="#bcbec0"/><path d="M212.52,398.37c-2.58,.03-45.95-30.42-49.73-33.09,.59,2.67,3.09,11.17,4.82,15.77v.38c-11.1-5.57-21.66-12.32-34.01-22.28h0l3.69,13.99s-15.93-9.18-15.78-9.18c.2,0-8.4,0-8.19,0,10.07,7.41,23.15,15.99,34.2,20.35-.11-.51-2.74-9.75-3-10.44,10.7,7.46,23.47,14,32.92,18.52-.61-2.15-3.96-10.44-4.68-12.99,4.12,2.86,38.46,25.54,39.77,25.5,1.31,.04,35.64-22.64,39.77-25.5-.73,2.56-4.07,10.85-4.68,12.99,9.45-4.51,22.22-11.06,32.92-18.52-.26,.69-2.89,9.93-3,10.44,11.06-4.36,24.14-12.94,34.21-20.35,.2,0-8.39,0-8.19,0,.14,0-15.78,9.18-15.78,9.18l3.69-13.99h0c-12.35,9.96-22.91,16.72-34.01,22.28v-.38c1.73-4.6,4.23-13.11,4.82-15.77-3.78,2.67-47.15,33.11-49.73,33.09Z" fill="#bcbec0"/></g></svg>